<svg width="196" height="102" viewBox="0 0 196 102" fill="none" xmlns="http://www.w3.org/2000/svg">
<g clip-path="url(#clip0_3912_1959)">
<path fill-rule="evenodd" clip-rule="evenodd" d="M97.9714 65.4947C117.059 65.4947 132.533 50.9452 132.533 32.9975C132.533 15.0496 117.059 0.5 97.9714 0.5C78.8835 0.5 63.4097 15.0496 63.4097 32.9975C63.4097 50.9452 78.8835 65.4947 97.9714 65.4947ZM100.672 3.53904V8.06332H95.2712V3.5408C94.3211 3.61724 93.3832 3.73338 92.4591 3.88729L93.6953 8.22445L88.4781 9.53902L87.2424 5.20338C86.3521 5.50776 85.4806 5.84854 84.6299 6.22454L87.026 10.127L82.3483 12.6663L79.9576 8.77258C79.1866 9.28068 78.4411 9.82023 77.7231 10.3899L81.0824 13.5486L77.2635 17.1395L73.9074 13.9838C73.3045 14.6581 72.7333 15.3579 72.1954 16.0816L76.3037 18.3118L73.6032 22.7101L69.4935 20.4792C69.0982 21.2736 68.7383 22.0863 68.4178 22.9171L73.0152 24.0755L71.6172 28.9811L67.0236 27.8236C66.8607 28.6896 66.7367 29.5682 66.6562 30.4585H71.4321V35.537H66.6546C66.7347 36.4193 66.8559 37.2908 67.0163 38.1496L71.6896 36.972L73.0876 41.8775L68.4076 43.0567C68.7276 43.8886 69.0876 44.7024 69.4826 45.4976L73.6923 43.2124L76.3929 47.6106L72.1815 49.8968C72.7195 50.622 73.2917 51.3233 73.8951 51.9989L77.3604 48.7406L81.1792 52.3315L77.7086 55.5948C78.4276 56.1658 79.1744 56.7068 79.9466 57.2163L82.4112 53.2025L87.089 55.7417L84.6181 59.7658C85.4706 60.1429 86.3437 60.4848 87.2359 60.7901L88.5139 56.306L93.731 57.6205L92.4524 62.107C93.3786 62.2616 94.3188 62.3782 95.2712 62.4546V57.8268H100.672V62.4566C101.609 62.3819 102.535 62.2686 103.447 62.1181L102.15 57.5675L107.367 56.2529L108.667 60.8117C109.562 60.5075 110.438 60.1665 111.293 59.79L108.785 55.7046L113.462 53.1654L115.97 57.249C116.746 56.739 117.497 56.1972 118.22 55.625L114.655 52.2734L118.474 48.6826L122.039 52.0347C122.647 51.3565 123.223 50.6523 123.765 49.9241L119.387 47.5475L122.087 43.1492L126.469 45.5278C126.867 44.7279 127.23 43.9096 127.553 43.0728L122.675 41.8436L124.073 36.9382L128.947 38.1662C129.109 37.3021 129.231 36.4252 129.312 35.537H124.342V30.4585H129.31C129.229 29.5623 129.104 28.6783 128.94 27.8067L124.147 29.0142L122.749 24.1087L127.542 22.901C127.219 22.0653 126.856 21.2481 126.458 20.4495L122.185 22.7689L119.485 18.3705L123.751 16.0547C123.209 15.3278 122.634 14.6251 122.027 13.9482L118.563 17.2054L114.744 13.6145L118.205 10.36C117.484 9.78925 116.734 9.2486 115.959 8.73978L113.511 12.7263L108.833 10.1871L111.281 6.20055C110.428 5.8252 109.553 5.48497 108.66 5.18172L107.41 9.56957L102.192 8.2551L103.44 3.87613C102.531 3.72639 101.607 3.61347 100.672 3.53904Z" fill="#D3D3D6"/>
<path fill-rule="evenodd" clip-rule="evenodd" d="M67.4478 48.2555L79.4444 44.0106L81.9418 46.5046L68.8015 51.7161L67.4478 48.2555Z" fill="#1A2224"/>
<path fill-rule="evenodd" clip-rule="evenodd" d="M128.475 48.2881L116.488 44.0231L115.149 45.5526L128.062 52.2092L128.475 48.2881Z" fill="#1A2224"/>
<path fill-rule="evenodd" clip-rule="evenodd" d="M72.5836 27.4544L64.2236 24.0244L65.3907 20.9105L73.8376 24.3016L72.5836 27.4544Z" fill="#1A2224"/>
<path fill-rule="evenodd" clip-rule="evenodd" d="M123.429 27.5066L131.798 24.0495L130.821 20.7463L121.591 24.4665L123.429 27.5066Z" fill="#1A2224"/>
<path fill-rule="evenodd" clip-rule="evenodd" d="M92.8795 15.8844C93.9474 18.8268 93.3468 21.173 94.3617 21.9818C95.294 22.725 95.8286 21.6428 97.9525 21.6408C99.802 21.6392 100.034 22.5033 101.206 22.1436C102.601 21.7156 101.979 18.5247 102.936 15.8844C104.009 19.8592 106.505 20.5419 106.427 22.9625C106.372 24.6425 104.567 25.7113 103.067 27.303C101.132 29.3557 99.9147 31.1956 97.9712 31.2055C96.0388 31.2152 94.8506 29.5964 92.755 27.3497C91.2484 25.7342 89.44 24.7093 89.3819 23.0147C89.2932 20.4355 91.2153 20.6935 92.8795 15.8844ZM102.129 23.4696C100.872 24.9757 98.2588 24.8968 99.0013 28.0029C101.498 28.0281 102.08 25.9611 102.129 23.4696ZM93.6866 23.4696C94.9738 25.0243 97.4977 24.9457 96.8146 28.0029C94.2516 28.0143 93.795 25.8986 93.6866 23.4696Z" fill="#D3D3D6"/>
<path fill-rule="evenodd" clip-rule="evenodd" d="M45.5657 17.176C27.3813 17.7561 16.2987 18.0344 0.5 18.4858C4.17599 21.0325 9.9727 24.1239 14.7779 27.743C18.9409 30.8784 21.9716 32.8382 22.0688 38.7738C31.0752 31.4294 39.6826 24.416 48.6116 17.1706C46.1714 14.3429 45.4943 13.1454 44.1423 9.47539C43.3842 11.9612 43.5509 14.7771 45.5657 17.176Z" fill="#D3D3D6"/>
<path fill-rule="evenodd" clip-rule="evenodd" d="M47.6738 19.8351C39.6383 26.5563 30.932 33.2461 22.8965 39.9673C34.3708 37.3601 40.0774 41.4337 43.6805 46.6737C45.0116 37.7274 46.3428 28.7813 47.6738 19.8351Z" fill="#D3D3D6"/>
<path fill-rule="evenodd" clip-rule="evenodd" d="M49.5228 18.0008C48.1384 27.3169 46.5943 37.6908 45.1807 47.1802C54.2765 41.5945 60.3561 44.8125 65.2365 47.5705C60.1589 37.9289 54.6005 27.6425 49.5228 18.0008Z" fill="#D3D3D6"/>
<path fill-rule="evenodd" clip-rule="evenodd" d="M50.9204 17.3316C56.294 27.4367 61.9916 38.1668 67.3651 48.2719C75.579 46.6724 91.3154 36.4084 89.4914 47.1253C96.7283 45.994 97.0328 51.0306 97.9696 55.1562C98.8568 49.6401 100.362 46.1054 106.499 47.1253C104.656 36.3576 120.519 46.795 128.57 48.3063C133.697 38.2013 139.887 27.4712 145.014 17.3661C129.51 26.2196 105.213 35.6226 103.64 29.3047C100.568 34.5539 94.8854 34.4152 92.2947 29.2702C90.8915 35.7224 65.4416 25.6556 50.9204 17.3316Z" fill="#D3D3D6"/>
<path fill-rule="evenodd" clip-rule="evenodd" d="M150.434 17.175C168.619 17.7551 179.701 18.0334 195.5 18.4848C191.824 21.0315 186.027 24.1228 181.222 27.7419C177.059 30.8774 174.028 32.8372 173.931 38.7727C164.925 31.4284 156.317 24.415 147.388 17.1695C149.828 14.3419 150.505 13.1444 151.858 9.47438C152.616 11.9602 152.449 14.776 150.434 17.175Z" fill="#D3D3D6"/>
<path fill-rule="evenodd" clip-rule="evenodd" d="M148.327 19.8342C156.362 26.5554 165.068 33.2452 173.104 39.9664C161.63 37.3593 155.923 41.4328 152.32 46.6729C150.989 37.7266 149.658 28.7805 148.327 19.8342Z" fill="#D3D3D6"/>
<path fill-rule="evenodd" clip-rule="evenodd" d="M146.477 17.9999C147.861 27.3161 149.406 37.69 150.819 47.1793C141.723 41.5936 135.644 44.8116 130.763 47.5697C135.841 37.928 141.399 27.6417 146.477 17.9999Z" fill="#D3D3D6"/>
<path d="M17.2396 66.8247H20.9186L29.5692 87.954H29.8675L38.518 66.8247H42.197V92.2793H39.3135V72.9398H39.0649L31.1104 92.2793H28.3263L20.3717 72.9398H20.1231V92.2793H17.2396V66.8247ZM55.9838 92.677C54.1444 92.677 52.5576 92.271 51.2235 91.459C49.8978 90.6387 48.8745 89.4952 48.1536 88.0286C47.441 86.5537 47.0847 84.8385 47.0847 82.883C47.0847 80.9275 47.441 79.204 48.1536 77.7125C48.8745 76.2128 49.8771 75.0444 51.1614 74.2075C52.454 73.3624 53.9621 72.9398 55.6855 72.9398C56.6799 72.9398 57.6618 73.1055 58.6312 73.437C59.6007 73.7684 60.4831 74.307 61.2786 75.0527C62.074 75.7902 62.7079 76.7679 63.1802 77.986C63.6525 79.204 63.8887 80.7038 63.8887 82.4852V83.7281H49.1728V81.1926H60.9057C60.9057 80.1155 60.6903 79.1543 60.2594 78.3091C59.8368 77.4639 59.2319 76.7969 58.4448 76.308C57.6659 75.8192 56.7462 75.5747 55.6855 75.5747C54.5172 75.5747 53.5063 75.8647 52.6529 76.4448C51.8077 77.0165 51.1573 77.7622 50.7015 78.682C50.2458 79.6017 50.0179 80.5878 50.0179 81.6401V83.3304C50.0179 84.7722 50.2665 85.9944 50.7637 86.997C51.2691 87.9913 51.9693 88.7495 52.8642 89.2715C53.7591 89.7852 54.7989 90.0421 55.9838 90.0421C56.7544 90.0421 57.4505 89.9343 58.0719 89.7189C58.7016 89.4952 59.2444 89.1638 59.7001 88.7246C60.1558 88.2772 60.508 87.722 60.7566 87.0591L63.5904 87.8546C63.2921 88.8157 62.7908 89.6609 62.0865 90.3901C61.3822 91.111 60.5121 91.6744 59.4764 92.0804C58.4406 92.4781 57.2765 92.677 55.9838 92.677ZM66.6603 92.2793V89.5449H67.3564C67.9281 89.5449 68.4045 89.433 68.7857 89.2093C69.1668 88.9773 69.4734 88.5754 69.7054 88.0037C69.9457 87.4237 70.128 86.62 70.2523 85.5925C70.3849 84.5567 70.4802 83.2393 70.5382 81.6401L70.8862 73.1884H83.6135V92.2793H80.6802V75.9227H73.6703L73.372 82.7338C73.3057 84.2999 73.1648 85.6795 72.9494 86.8727C72.7422 88.0576 72.4232 89.0519 71.9924 89.8556C71.5698 90.6594 71.0063 91.2642 70.302 91.6703C69.5977 92.0763 68.7153 92.2793 67.6547 92.2793H66.6603ZM91.9284 87.954L101.126 73.1884H104.507V92.2793H101.573V77.5137L92.4256 92.2793H88.9952V73.1884H91.9284V87.954ZM107.281 75.9227V73.1884H122.793V75.9227H116.528V92.2793H113.595V75.9227H107.281ZM131.698 92.7267C130.488 92.7267 129.39 92.4989 128.404 92.0431C127.418 91.5791 126.635 90.9121 126.055 90.0421C125.475 89.1638 125.185 88.1031 125.185 86.8602C125.185 85.7665 125.401 84.8799 125.832 84.2004C126.262 83.5127 126.838 82.9741 127.559 82.5847C128.28 82.1952 129.076 81.9052 129.946 81.7147C130.824 81.5158 131.706 81.3584 132.593 81.2423C133.753 81.0932 134.693 80.9813 135.414 80.9068C136.143 80.8239 136.674 80.6872 137.005 80.4966C137.345 80.306 137.515 79.9746 137.515 79.5023V79.4029C137.515 78.1765 137.179 77.2236 136.508 76.5442C135.845 75.8647 134.838 75.525 133.488 75.525C132.088 75.525 130.99 75.8316 130.194 76.4448C129.399 77.0579 128.839 77.7125 128.516 78.4085L125.732 77.4142C126.229 76.2542 126.892 75.351 127.721 74.7047C128.558 74.0501 129.469 73.5944 130.455 73.3375C131.449 73.0724 132.427 72.9398 133.388 72.9398C134.002 72.9398 134.706 73.0144 135.501 73.1635C136.305 73.3044 137.08 73.5985 137.826 74.046C138.58 74.4934 139.205 75.1687 139.702 76.0719C140.199 76.9751 140.448 78.1848 140.448 79.7012V92.2793H137.515V89.6941H137.366C137.167 90.1084 136.835 90.5517 136.371 91.024C135.907 91.4963 135.29 91.8981 134.519 92.2296C133.749 92.561 132.808 92.7267 131.698 92.7267ZM132.146 90.0918C133.306 90.0918 134.283 89.8639 135.079 89.4082C135.882 88.9525 136.487 88.3642 136.893 87.6433C137.308 86.9224 137.515 86.1642 137.515 85.3688V82.6841C137.391 82.8333 137.117 82.97 136.695 83.0943C136.28 83.2103 135.8 83.3138 135.253 83.405C134.714 83.4879 134.188 83.5624 133.674 83.6287C133.169 83.6867 132.759 83.7364 132.444 83.7779C131.681 83.8773 130.969 84.0389 130.306 84.2626C129.651 84.478 129.121 84.8053 128.715 85.2445C128.317 85.6754 128.119 86.2637 128.119 87.0094C128.119 88.0286 128.496 88.7992 129.25 89.3212C130.012 89.8349 130.977 90.0918 132.146 90.0918ZM156.739 79.9995V82.7338H145.603V79.9995H156.739ZM177.263 92.2793L168.513 80.596H165.381V92.2793H162.298V66.8247H165.381V77.8617H166.723L176.915 66.8247H180.594L170.302 78.0108L180.942 92.2793H177.263Z" fill="#D3D3D6"/>
</g>
<defs>
<clipPath id="clip0_3912_1959">
<rect width="195" height="101" fill="white" transform="translate(0.5 0.5)"/>
</clipPath>
</defs>
</svg>
