<svg width="196" height="102" viewBox="0 0 196 102" fill="none" xmlns="http://www.w3.org/2000/svg">
<g clip-path="url(#clip0_3912_1959)">
<path fill-rule="evenodd" clip-rule="evenodd" d="M97.9714 65.4947C117.059 65.4947 132.533 50.9452 132.533 32.9975C132.533 15.0496 117.059 0.5 97.9714 0.5C78.8835 0.5 63.4097 15.0496 63.4097 32.9975C63.4097 50.9452 78.8835 65.4947 97.9714 65.4947ZM100.672 3.53904V8.06332H95.2712V3.5408C94.3211 3.61724 93.3832 3.73338 92.4591 3.88729L93.6953 8.22445L88.4781 9.53902L87.2424 5.20338C86.3521 5.50776 85.4806 5.84854 84.6299 6.22454L87.026 10.127L82.3483 12.6663L79.9576 8.77258C79.1866 9.28068 78.4411 9.82023 77.7231 10.3899L81.0824 13.5486L77.2635 17.1395L73.9074 13.9838C73.3045 14.6581 72.7333 15.3579 72.1954 16.0816L76.3037 18.3118L73.6032 22.7101L69.4935 20.4792C69.0982 21.2736 68.7383 22.0863 68.4178 22.9171L73.0152 24.0755L71.6172 28.9811L67.0236 27.8236C66.8607 28.6896 66.7367 29.5682 66.6562 30.4585H71.4321V35.537H66.6546C66.7347 36.4193 66.8559 37.2908 67.0163 38.1496L71.6896 36.972L73.0876 41.8775L68.4076 43.0567C68.7276 43.8886 69.0876 44.7024 69.4826 45.4976L73.6923 43.2124L76.3929 47.6106L72.1815 49.8968C72.7195 50.622 73.2917 51.3233 73.8951 51.9989L77.3604 48.7406L81.1792 52.3315L77.7086 55.5948C78.4276 56.1658 79.1744 56.7068 79.9466 57.2163L82.4112 53.2025L87.089 55.7417L84.6181 59.7658C85.4706 60.1429 86.3437 60.4848 87.2359 60.7901L88.5139 56.306L93.731 57.6205L92.4524 62.107C93.3786 62.2616 94.3188 62.3782 95.2712 62.4546V57.8268H100.672V62.4566C101.609 62.3819 102.535 62.2686 103.447 62.1181L102.15 57.5675L107.367 56.2529L108.667 60.8117C109.562 60.5075 110.438 60.1665 111.293 59.79L108.785 55.7046L113.462 53.1654L115.97 57.249C116.746 56.739 117.497 56.1972 118.22 55.625L114.655 52.2734L118.474 48.6826L122.039 52.0347C122.647 51.3565 123.223 50.6523 123.765 49.9241L119.387 47.5475L122.087 43.1492L126.469 45.5278C126.867 44.7279 127.23 43.9096 127.553 43.0728L122.675 41.8436L124.073 36.9382L128.947 38.1662C129.109 37.3021 129.231 36.4252 129.312 35.537H124.342V30.4585H129.31C129.229 29.5623 129.104 28.6783 128.94 27.8067L124.147 29.0142L122.749 24.1087L127.542 22.901C127.219 22.0653 126.856 21.2481 126.458 20.4495L122.185 22.7689L119.485 18.3705L123.751 16.0547C123.209 15.3278 122.634 14.6251 122.027 13.9482L118.563 17.2054L114.744 13.6145L118.205 10.36C117.484 9.78925 116.734 9.2486 115.959 8.73978L113.511 12.7263L108.833 10.1871L111.281 6.20055C110.428 5.8252 109.553 5.48497 108.66 5.18172L107.41 9.56957L102.192 8.2551L103.44 3.87613C102.531 3.72639 101.607 3.61347 100.672 3.53904Z" fill="#D3D3D6"/>
<path fill-rule="evenodd" clip-rule="evenodd" d="M67.4478 48.2555L79.4444 44.0106L81.9418 46.5046L68.8015 51.7161L67.4478 48.2555Z" fill="#D3D3D6"/>
<path fill-rule="evenodd" clip-rule="evenodd" d="M128.475 48.2881L116.488 44.0231L115.149 45.5526L128.062 52.2092L128.475 48.2881Z" fill="#D3D3D6"/>
<path fill-rule="evenodd" clip-rule="evenodd" d="M72.5836 27.4544L64.2236 24.0244L65.3907 20.9105L73.8376 24.3016L72.5836 27.4544Z" fill="#D3D3D6"/>
<path fill-rule="evenodd" clip-rule="evenodd" d="M123.429 27.5066L131.798 24.0495L130.821 20.7463L121.591 24.4665L123.429 27.5066Z" fill="#D3D3D6"/>
<path fill-rule="evenodd" clip-rule="evenodd" d="M92.8795 15.8844C93.9474 18.8268 93.3468 21.173 94.3617 21.9818C95.294 22.725 95.8286 21.6428 97.9525 21.6408C99.802 21.6392 100.034 22.5033 101.206 22.1436C102.601 21.7156 101.979 18.5247 102.936 15.8844C104.009 19.8592 106.505 20.5419 106.427 22.9625C106.372 24.6425 104.567 25.7113 103.067 27.303C101.132 29.3557 99.9147 31.1956 97.9712 31.2055C96.0388 31.2152 94.8506 29.5964 92.755 27.3497C91.2484 25.7342 89.44 24.7093 89.3819 23.0147C89.2932 20.4355 91.2153 20.6935 92.8795 15.8844ZM102.129 23.4696C100.872 24.9757 98.2588 24.8968 99.0013 28.0029C101.498 28.0281 102.08 25.9611 102.129 23.4696ZM93.6866 23.4696C94.9738 25.0243 97.4977 24.9457 96.8146 28.0029C94.2516 28.0143 93.795 25.8986 93.6866 23.4696Z" fill="#D3D3D6"/>
<path fill-rule="evenodd" clip-rule="evenodd" d="M45.5657 17.176C27.3813 17.7561 16.2987 18.0344 0.5 18.4858C4.17599 21.0325 9.9727 24.1239 14.7779 27.743C18.9409 30.8784 21.9716 32.8382 22.0688 38.7738C31.0752 31.4294 39.6826 24.416 48.6116 17.1706C46.1714 14.3429 45.4943 13.1454 44.1423 9.47539C43.3842 11.9612 43.5509 14.7771 45.5657 17.176Z" fill="#D3D3D6"/>
<path fill-rule="evenodd" clip-rule="evenodd" d="M47.6738 19.8351C39.6383 26.5563 30.932 33.2461 22.8965 39.9673C34.3708 37.3601 40.0774 41.4337 43.6805 46.6737C45.0116 37.7274 46.3428 28.7813 47.6738 19.8351Z" fill="#D3D3D6"/>
<path fill-rule="evenodd" clip-rule="evenodd" d="M49.5228 18.0008C48.1384 27.3169 46.5943 37.6908 45.1807 47.1802C54.2765 41.5945 60.3561 44.8125 65.2365 47.5705C60.1589 37.9289 54.6005 27.6425 49.5228 18.0008Z" fill="#D3D3D6"/>
<path fill-rule="evenodd" clip-rule="evenodd" d="M50.9204 17.3316C56.294 27.4367 61.9916 38.1668 67.3651 48.2719C75.579 46.6724 91.3154 36.4084 89.4914 47.1253C96.7283 45.994 97.0328 51.0306 97.9696 55.1562C98.8568 49.6401 100.362 46.1054 106.499 47.1253C104.656 36.3576 120.519 46.795 128.57 48.3063C133.697 38.2013 139.887 27.4712 145.014 17.3661C129.51 26.2196 105.213 35.6226 103.64 29.3047C100.568 34.5539 94.8854 34.4152 92.2947 29.2702C90.8915 35.7224 65.4416 25.6556 50.9204 17.3316Z" fill="#D3D3D6"/>
<path fill-rule="evenodd" clip-rule="evenodd" d="M150.434 17.175C168.619 17.7551 179.701 18.0334 195.5 18.4848C191.824 21.0315 186.027 24.1228 181.222 27.7419C177.059 30.8774 174.028 32.8372 173.931 38.7727C164.925 31.4284 156.317 24.415 147.388 17.1695C149.828 14.3419 150.505 13.1444 151.858 9.47438C152.616 11.9602 152.449 14.776 150.434 17.175Z" fill="#D3D3D6"/>
<path fill-rule="evenodd" clip-rule="evenodd" d="M148.327 19.8342C156.362 26.5554 165.068 33.2452 173.104 39.9664C161.63 37.3593 155.923 41.4328 152.32 46.6729C150.989 37.7266 149.658 28.7805 148.327 19.8342Z" fill="#D3D3D6"/>
<path fill-rule="evenodd" clip-rule="evenodd" d="M146.477 17.9999C147.861 27.3161 149.406 37.69 150.819 47.1793C141.723 41.5936 135.644 44.8116 130.763 47.5697C135.841 37.928 141.399 27.6417 146.477 17.9999Z" fill="#D3D3D6"/>
</g>
<defs>
<clipPath id="clip0_3912_1959">
<rect width="195" height="101" fill="white" transform="translate(0.5 0.5)"/>
</clipPath>
</defs>
</svg>

