<svg version="1.2" xmlns="http://www.w3.org/2000/svg" viewBox="0 0 1400 500" width="1400" height="500">
	<title>НОЖИ для жизни вектор-cdr</title>
	<defs>
		<clipPath clipPathUnits="userSpaceOnUse" id="cp1">
			<path d="m0 0h1400v500h-1400z"/>
		</clipPath>
	</defs>
	<style>
		tspan { white-space:pre }
		.s0 { fill: #d49f0f  }
		.t1 { font-size: 160px;line-height: 150px;fill: #d49f0f ;font-family: "Arial" }
		.t2 { font-size: 160px;fill: #d49f0f ;font-family: "Arial" }
	</style>
	<g id="Page 1" clip-path="url(#cp1)">
		<g id="Group 1">
		</g>
		<g id="Group 3">
			<path id="Object 6" class="s0" d="m102.5 251.9v34.4h-102.7v-31.6z"/>
			<path id="Object 7" class="s0" d="m282.8 246.9v39.4h-102.6v-36.6z"/>
			<path id="Object 8" class="s0" d="m282.8 5.4v26.9l-58.5 41.5 58.5-21.2v185.3l-102.6-1.4v-59.3h-77.7v58.2l-102.7-1.4v-83.9l192.1-12.4-192.1-22.2v-110.1h8.7l51.6 76.9-15.6-76.9h58v103.6h77.7v-103.6z"/>
			<path id="Object 9" class="s0" d="m1099.7 286l-0.4-91.5 158.7 11.2-36.4 80.3zm-0.4-99.3l-0.6-155.5 99.1-14.4 0.2 159.9 77.6-169.9h123.4v28.6l-78.7 24.6c3 0 78.7-7.4 78.7-7.4v142.4l-102.8-2.8 0.4-71.7-32 70.8zm299.6 29.1v70.1h-103.2l0.4-77.5z"/>
			<path id="Object 10" fill-rule="evenodd" class="s0" d="m660.1 6.2l46.8 35.5-22.3-35.4 39.7-0.1 33.4 64.9-89.9 17.7-55.7-82.5zm102.2 73.7l24.1 46.9 8.9 0.6 0.2-52.3 98.1-14.2 0.2 66.2h8l38.5-73 115-16.7-68.6 100.1 1.6 3.1 37.8 56 59.8 88.5-74.3-0.2 24.1-28.2-59.2 28.1h-13.2l-60.9-124.5-10 0.4 0.8 125-95.3-0.3-0.7-125.7-11.4-0.7-61.5 126.8-121.7 0.1 22.4-33.2 81.2-61.8-58.2 27.6 53.6-79.7-30.8-45.6zm258.6 108.9l-2.9-4.4-96-2.6zm-69.5-155.8l13.8-26.1 109.6 1.9zm-155.8 30.6l0.3-57 97.6 0.6 0.1 37.1zm36 113.9c0 0-13.6-8.5-28.1-0.2 13.3 9.1 28.1 0.2 28.1 0.2z"/>
			<path id="Object 11" fill-rule="evenodd" class="s0" d="m343.4 245.2l153.7-4.3-159.8-2.2c-22.1-25.1-35.3-57.2-35.3-92.2 0-80.7 70.5-146.1 157.6-146.1 8.9 0 17.7 0.7 26.3 2l-3.4-0.3-96.3 53.2 134.8-43.4c56.5 22.2 96.2 74.1 96.2 134.6 0 80.7-70.6 146.1-157.6 146.1-46 0-87.4-18.3-116.2-47.4zm164.9-98.7c0-45.6-21.8-82.5-48.8-82.5-27.1 0-48.9 36.9-48.9 82.5 0 45.6 21.8 82.4 48.9 82.4 27 0 48.8-36.8 48.8-82.4z"/>
		</g>
		<g id="Group 13">
			<text id="ЖИЗНИ
" style="transform: matrix(1,0,0,1,644.521,482.24)" >
				<tspan x="0" y="0" class="t1">Ж</tspan><tspan  y="0" class="t1"> </tspan><tspan  y="0" class="t1">И</tspan><tspan  y="0" class="t1"> </tspan><tspan  y="0" class="t1">З</tspan><tspan  y="0" class="t1"> </tspan><tspan  y="0" class="t1">Н</tspan><tspan  y="0" class="t1"> </tspan><tspan  y="0" class="t1">И</tspan><tspan  y="0" class="t2">
</tspan>
			</text>
			<text id="ДЛЯ
" style="transform: matrix(1,0,0,1,-1,481.496)" >
				<tspan x="0" y="0" class="t2">Д</tspan><tspan  y="0" class="t2"> </tspan><tspan  y="0" class="t2">Л</tspan><tspan  y="0" class="t2"> </tspan><tspan  y="0" class="t2">Я</tspan><tspan  y="0" class="t2">
</tspan>
			</text>
		</g>
		<g id="Group 15">
		</g>
		<g id="Group 17">
		</g>
	</g>
</svg>
